<?xml version="1.0" encoding="utf-8"?>
<!-- Generator: Adobe Illustrator 26.1.0, SVG Export Plug-In . SVG Version: 6.00 Build 0)  -->
<svg version="1.1" xmlns="http://www.w3.org/2000/svg" xmlns:xlink="http://www.w3.org/1999/xlink" x="0px" y="0px"
	 viewBox="0 0 500 500" style="enable-background:new 0 0 500 500;" xml:space="preserve">
<style type="text/css">
	.st0{opacity:0.15;fill:#BA68C8;}
	.st1{fill:#FAFAFA;}
	.st2{fill:#E0E0E0;}
	.st3{fill:#37474F;}
	.st4{fill:#455A64;}
	.st5{fill:#BA68C8;}
	.st6{opacity:0.4;fill:#FFFFFF;}
	.st7{opacity:0.6;}
	.st8{fill:#FFFFFF;}
	.st9{opacity:0.3;}
	.st10{opacity:0.15;}
	.st11{opacity:0.2;fill:#BA68C8;}
	.st12{opacity:0.25;fill:#BA68C8;}
	.st13{opacity:0.3;fill:#FFFFFF;}
	.st14{opacity:0.6;fill:#BA68C8;}
	.st15{opacity:0.2;}
	.st16{opacity:0.35;fill:#BA68C8;}
	.st17{opacity:0.2;fill:#FFFFFF;}
	.st18{opacity:0.3;fill:#BA68C8;}
	.st19{opacity:0.6;fill:#FFFFFF;}
	.st20{fill:#F5F5F5;}
</style>
<g id="Background_00000013191662730729505680000005006755066849777806_">
	<path id="Background" class="st0" d="M197.48,352.97c86.47,4.2,149.16-58.17,163.94-141.11c9.53-53.49,0.52-108.63-37.48-149.07
		c-13.33-14.19-29.37-26.12-47.6-32.98c-18.22-6.86-38.72-8.42-57.28-2.52c-14.7,4.67-27.89,13.96-37.23,26.23
		c-10.37,13.61-16.06,30.66-28.15,42.78c-28.94,29-63.51,17.59-94.33,48.9c-16.3,16.56-19.07,31.62-21.48,44.45
		c-7.19,38.2,10.22,85.45,36.1,112.25C104.77,333.82,152.58,350.79,197.48,352.97z"/>
</g>
<g id="Floor">
	
		<ellipse id="Floor_00000103250060327042848960000017969376837307402647_" class="st1" cx="250" cy="359.77" rx="226.09" ry="130.53"/>
</g>
<g id="Shadow">
	
		<ellipse id="Shadow_00000039136078961163108340000009754984375194850178_" class="st2" cx="250" cy="356.77" rx="160.8" ry="92.84"/>
</g>
<g id="Clouds">
	<g id="Clouds_3_">
		<path class="st3" d="M92.09,78.05h8.75c2.83-17.47,17.97-30.81,36.24-30.81c15.28,0,28.37,9.33,33.9,22.6h8.76
			c12.67,0,22.95,10.27,22.95,22.95v5.06h4.76c6.77,0,12.26,5.49,12.26,12.26c0,6.77-5.49,12.26-12.26,12.26h-60.12h-33.68H92.09
			c-12.24,0-22.16-9.92-22.16-22.16C69.93,87.97,79.85,78.05,92.09,78.05z"/>
		<path class="st4" d="M37.56,155.39h4.9c1.58-9.78,10.06-17.25,20.29-17.25c8.55,0,15.88,5.22,18.98,12.65h4.9
			c7.1,0,12.85,5.75,12.85,12.85v2.83h2.67c3.79,0,6.86,3.07,6.86,6.86c0,3.79-3.07,6.86-6.86,6.86H68.49H49.63H37.56
			c-6.85,0-12.41-5.55-12.41-12.41C25.15,160.94,30.7,155.39,37.56,155.39z"/>
		<g>
			<polygon class="st5" points="130.76,82.9 147.92,82.9 134.04,104.51 144.07,104.51 118.8,135.76 128.06,112.42 117.83,112.42 			
				"/>
			<polygon class="st6" points="130.76,82.9 147.92,82.9 134.04,104.51 144.07,104.51 118.8,135.76 128.06,112.42 117.83,112.42 			
				"/>
		</g>
		<g>
			<polygon class="st5" points="155.8,112.16 169.74,112.16 158.46,129.71 166.61,129.71 146.08,155.09 153.6,136.13 145.3,136.13 
							"/>
			<polygon class="st6" points="155.8,112.16 169.74,112.16 158.46,129.71 166.61,129.71 146.08,155.09 153.6,136.13 145.3,136.13 
							"/>
		</g>
		<g>
			<polygon class="st5" points="57.22,170.6 69.93,170.6 59.65,186.58 67.07,186.58 48.38,209.7 55.23,192.43 47.66,192.43 			"/>
			<polygon class="st6" points="57.22,170.6 69.93,170.6 59.65,186.58 67.07,186.58 48.38,209.7 55.23,192.43 47.66,192.43 			"/>
		</g>
	</g>
</g>
<g id="Hearts_00000132083694285515400900000004490725514147736509_">
	<g id="Hearts">
		<g>
			<g>
				<path class="st5" d="M429.83,241.85c-5.28-5.63-14.32-3.3-18.87,5.62l-4.95,6.38l3.43,8.34l-5.84,10.17
					C428.65,265.09,435.12,247.49,429.83,241.85z"/>
				<path class="st5" d="M401.6,252.81l4.95-6.38c1.03-9.96-5.29-16.83-12.79-14.97c-7.5,1.86-11.63,20.15,5.44,39.86l5.84-10.17
					L401.6,252.81z"/>
			</g>
			<g class="st7">
				<path class="st8" d="M429.83,241.85c-5.28-5.63-14.32-3.3-18.87,5.62l-4.95,6.38l3.43,8.34l-5.84,10.17
					C428.65,265.09,435.12,247.49,429.83,241.85z"/>
				<path class="st8" d="M401.6,252.81l4.95-6.38c1.03-9.96-5.29-16.83-12.79-14.97c-7.5,1.86-11.63,20.15,5.44,39.86l5.84-10.17
					L401.6,252.81z"/>
			</g>
		</g>
		<g>
			<g>
				<path class="st5" d="M439.13,172.37c-4.74-2.37-10.01,1.28-10.81,8.11l-1.67,5.29l4.2,4.56l-1.34,7.94
					C443.9,187.62,443.87,174.75,439.13,172.37z"/>
				<path class="st5" d="M422.02,186.63l1.67-5.29c-1.71-6.66-7.42-9.58-11.8-6.59c-4.38,2.98-2.69,15.75,13,24.38l1.34-7.94
					L422.02,186.63z"/>
			</g>
			<g class="st9">
				<path class="st8" d="M439.13,172.37c-4.74-2.37-10.01,1.28-10.81,8.11l-1.67,5.29l4.2,4.56l-1.34,7.94
					C443.9,187.62,443.87,174.75,439.13,172.37z"/>
				<path class="st8" d="M422.02,186.63l1.67-5.29c-1.71-6.66-7.42-9.58-11.8-6.59c-4.38,2.98-2.69,15.75,13,24.38l1.34-7.94
					L422.02,186.63z"/>
			</g>
		</g>
		<g>
			<g>
				<path class="st5" d="M467.26,218.81c-2.35-3.59-7.52-3.19-10.87,1.26l-3.32,3.02l1.08,4.9l-4.18,5.01
					C464.37,231.42,469.61,222.4,467.26,218.81z"/>
				<path class="st5" d="M449.75,220.86l3.32-3.02c1.52-5.36-1.28-9.72-5.56-9.43c-4.28,0.3-8.31,9.91-0.86,22.35l4.18-5.01
					L449.75,220.86z"/>
			</g>
			<g class="st7">
				<path class="st8" d="M467.26,218.81c-2.35-3.59-7.52-3.19-10.87,1.26l-3.32,3.02l1.08,4.9l-4.18,5.01
					C464.37,231.42,469.61,222.4,467.26,218.81z"/>
				<path class="st8" d="M449.75,220.86l3.32-3.02c1.52-5.36-1.28-9.72-5.56-9.43c-4.28,0.3-8.31,9.91-0.86,22.35l4.18-5.01
					L449.75,220.86z"/>
			</g>
		</g>
	</g>
</g>
<g id="Unicorn">
	<g id="Unicorn_00000146485174127919635390000014605242738225313967_">
		<g>
			<path class="st5" d="M366.43,121.19c17.99,9.17,28.8,41.63,22.6,70.26c-6.2,28.63-24.49,54.63-33.52,70.13
				c-9.03,15.51-7.4,28.54,1.96,33.34c9.36,4.8,20.24-1.88,19.19-10.89c5.6,12.74,4.59,36.58-21.17,38.66
				c-25.76,2.08-49.93-21.26-53.9-54.05S303.76,160.49,366.43,121.19z"/>
			<path class="st10" d="M340.78,142.21c-38.71,41.03-42.52,98.84-39.18,126.44c3.97,32.79,28.14,56.13,53.9,54.05
				c14.52-1.17,21.17-9.26,23.22-18.37c-1.46,3.58-4.16,6.71-7.55,8.59c-5.91,3.28-13.44,2.99-19.5,0
				c-3.05-1.51-5.76-3.65-8.01-6.19c-4.76-5.37-5.62-17.28-6.12-21.29c-1.09-8.8-2.19-17.59-3.29-26.39
				c-1.96-15.71-3.93-31.43-5.95-47.13c-0.22-1.69-1.25-6.05,1.7-8.17c2.24-1.61,8.27,0.87,10.89,1.74
				c6.76,2.24,14.25,2.89,20.96,0.52c6.71-2.38,12.43-8.15,13.53-15.18c1.33-8.51-3.98-16.55-9.45-23.21
				C358.33,158.41,349.91,149.89,340.78,142.21z"/>
		</g>
		<g>
			<path class="st5" d="M135.88,255.42c-4.24-15.7-23.44-34.44-50.17-27.81c18.66,6.13,20.21,17.54,20.21,17.54
				s-32.3-11.73-60.33,21.81c-28.03,33.53-7.72,80.23,17.97,96.87c25.69,16.64,51.56,15.49,63.4,10.4
				c-29.07-4.85-39.97-26.06-41.13-47.61c-0.8-15,15.64-48.35,45.44-47.93L135.88,255.42z"/>
			<path class="st10" d="M133.48,267.53c-28.35-3.69-59.88,12.87-62.3,41.19c5.28-15.11,28.26-28.39,48.45-28.39
				c0,0,0.04,0,0.09-0.01c3.59-1.09,7.44-1.7,11.55-1.64L133.48,267.53z"/>
		</g>
		<g>
			<g>
				<path class="st8" d="M340.61,360.09l0.01,0c-3.67-23.62-14.71-93.94-17.28-111.11c-2.57-17.17-6.15-38.03-6.15-38.03
					l-31.48,40.17l-3.14,110.2l0.02,0c-0.1,4.37,2.72,8.76,8.5,12.1c11.36,6.56,29.77,6.56,41.13,0
					C338.53,369.77,341.33,364.86,340.61,360.09z"/>
				<path class="st11" d="M340.61,360.09l0.01,0c-3.67-23.62-14.71-93.94-17.28-111.11c-2.57-17.17-6.15-38.03-6.15-38.03
					l-31.48,40.17l-3.14,110.2l0.02,0c-0.1,4.37,2.72,8.76,8.5,12.1c11.36,6.56,29.77,6.56,41.13,0
					C338.53,369.77,341.33,364.86,340.61,360.09z"/>
				<path class="st12" d="M332.22,373.42c2.41-1.39,4.3-2.97,5.69-4.65c-3.06,1.09-6.21,1.89-9.44,2.17
					c-6.82,0.59-14.15-1.38-18.69-6.49c-4.57-5.14-5.63-12.42-6.48-19.25c-1.84-14.61-3.68-29.26-3.82-43.98
					c-0.02-1.88,0.06-5.79,0.88-8.66c0.55-1.92,2.64-5.45,3.88-7.01c9.67-12.19,20.18-29.57,17.09-49.67
					c-2.1-13.15-4.12-24.93-4.12-24.93l-31.48,40.17l-3.14,110.2l0.02,0c-0.1,4.37,2.72,8.76,8.5,12.1
					C302.45,379.97,320.86,379.97,332.22,373.42z"/>
				<path class="st5" d="M340.63,360.09c-1.3-8.41-3.54-22.73-6-38.47c0,0.01,0,0.01,0,0.03c0.7,4.23-1.75,8.6-7.36,11.84
					c-9.97,5.76-26.14,5.76-36.11,0c-5.07-2.93-7.56-6.78-7.47-10.62l-1.1,38.45l0.02,0c-0.1,4.37,2.72,8.76,8.5,12.1
					c11.36,6.56,29.77,6.56,41.13,0c6.32-3.65,9.11-8.56,8.4-13.32L340.63,360.09z"/>
				<path class="st13" d="M340.63,360.09c-1.3-8.41-3.54-22.73-6-38.47c0,0.01,0,0.01,0,0.03c0.7,4.23-1.75,8.6-7.36,11.84
					c-9.97,5.76-26.14,5.76-36.11,0c-5.07-2.93-7.56-6.78-7.47-10.62l-1.1,38.45l0.02,0c-0.1,4.37,2.72,8.76,8.5,12.1
					c11.36,6.56,29.77,6.56,41.13,0c6.32-3.65,9.11-8.56,8.4-13.32L340.63,360.09z"/>
				<path class="st14" d="M332.22,373.42c2.41-1.39,4.3-2.97,5.69-4.65c-3.06,1.09-6.21,1.89-9.44,2.17
					c-6.82,0.59-14.15-1.38-18.69-6.49c-4.57-5.14-5.63-12.42-6.48-19.25c-0.33-2.65-0.66-5.29-0.98-7.94
					c-4.09-0.66-7.95-1.91-11.16-3.76c-5.07-2.93-7.56-6.78-7.47-10.62l-1.1,38.45l0.02,0c-0.1,4.37,2.72,8.76,8.5,12.1
					C302.45,379.97,320.86,379.97,332.22,373.42z"/>
			</g>
		</g>
		<g>
			<path class="st8" d="M323.73,188.06l-45.63-73.99c-15.46,54.68-65.11,80.3-86.93,92.3c-21.82,12-51.85,26.64-65.62,53.69
				c-13.77,27.05-5.17,68.61,25.39,86.25c30.55,17.64,90.48-4.99,93.51-13.65c6.71-19.18,23.9-21.85,53.28-51.35
				s23.54-49.02,21.15-65.32C316.48,199.67,314.43,192.68,323.73,188.06z"/>
			<g class="st15">
				<path class="st5" d="M278.87,120.18l41.32,67c-7.5,5.09-6.32,12.86-4.46,25.03c0.2,1.31,0.41,2.69,0.62,4.15
					c0.18,1.22,0.38,2.45,0.58,3.71c2.48,15.49,5.28,33.05-21.01,59.45c-12.22,12.27-22.32,19.86-30.43,25.96
					c-11.62,8.73-19.3,14.5-23.44,26.35c-0.47,1.34-6.27,5.95-20.45,10.92c-13.74,4.81-28.88,7.58-41.54,7.58
					c-11.34,0-20.71-2.09-27.85-6.21c-13.72-7.92-23.71-21.43-28.13-38.04c-4.16-15.65-2.8-32,3.73-44.84
					c12.33-24.22,38.36-38.36,59.28-49.73c1.81-0.98,3.57-1.94,5.29-2.89l2.21-1.21C216.76,195.26,262.07,170.46,278.87,120.18
					 M278.09,114.07c-15.46,54.68-65.11,80.3-86.93,92.3c-21.82,12-51.85,26.64-65.62,53.69c-13.77,27.05-5.17,68.61,25.39,86.25
					c8.16,4.71,18.41,6.55,29.12,6.55c29.38,0,62.17-13.85,64.39-20.2c6.71-19.18,23.9-21.85,53.28-51.35s23.54-49.02,21.15-65.32
					c-2.39-16.31-4.44-23.29,4.86-27.92L278.09,114.07L278.09,114.07z"/>
			</g>
			<path class="st12" d="M235.43,325.68c-2.15-8.51-3.96-14.91-9.5-22.93c-5.87-8.51-17.72-18.82-40.02-17.9l21.15,64.71
				c19.6-4.5,35.83-12.5,37.37-16.91c2.04-5.82,5.05-10.12,9.07-14.12c-4.04,3.37-10.14,7.57-13.56,9.44
				C237.03,329.57,235.88,327.47,235.43,325.68z"/>
			<path class="st11" d="M319.7,246.12c-2.92,9.44-14.06,24.76-21.48,25.87c-7.44,1.12-16.22-23.03-16.46-32.81
				c-11.61,15.77-6.77,48.71-4.55,60.48c6.03-4.81,12.85-10.67,20.51-18.36C311.31,267.66,317.35,256.16,319.7,246.12z"/>
			<g>
				<polygon class="st11" points="318.11,210.96 318.11,210.96 318.11,210.95 				"/>
				<path class="st11" d="M281.35,148.15c-3.48,12.04-3.09,24.43,9.89,33.24c12.98,8.81,18.98,10.24,22.36,15.48
					c2.73,4.24,4,10.84,4.38,13.2c-1.84-12.18-2.34-18,5.75-22.02l-28.51-46.23L281.35,148.15z"/>
			</g>
		</g>
		<g>
			<g>
				<path class="st8" d="M299.27,383.95l0.01,0c-3.67-23.62-14.71-93.94-17.28-111.11c-2.57-17.17-1-31.49,0.96-40.32l-38.58,42.46
					l-3.14,110.2l0.02,0c-0.1,4.37,2.72,8.76,8.5,12.1c11.36,6.56,29.77,6.56,41.13,0C297.19,393.62,299.99,388.72,299.27,383.95z"
					/>
				<path class="st12" d="M241.25,385.18c-0.1,4.37,2.72,8.76,8.5,12.1c11.36,6.56,29.77,6.56,41.13,0
					c1.59-0.92,2.96-1.92,4.11-2.98c-16.71,5.97-31.25,3.39-36.58-16.6c-5.33-19.99-8.86-62.89-14.03-102.72l-3.14,110.2
					L241.25,385.18z"/>
				<path class="st5" d="M299.29,383.95c-1.3-8.41-3.54-22.73-6-38.47c0,0.01,0,0.01,0,0.03c0.7,4.23-1.75,8.6-7.36,11.84
					c-9.97,5.76-26.14,5.76-36.11,0c-5.07-2.93-7.56-6.78-7.47-10.62l-1.1,38.45l0.02,0c-0.1,4.37,2.72,8.76,8.5,12.1
					c11.36,6.56,29.77,6.56,41.13,0c6.32-3.65,9.11-8.56,8.4-13.32L299.29,383.95z"/>
				<path class="st6" d="M299.29,383.95c-1.3-8.41-3.54-22.73-6-38.47c0,0.01,0,0.01,0,0.03c0.7,4.23-1.75,8.6-7.36,11.84
					c-9.97,5.76-26.14,5.76-36.11,0c-5.07-2.93-7.56-6.78-7.47-10.62l-1.1,38.45l0.02,0c-0.1,4.37,2.72,8.76,8.5,12.1
					c11.36,6.56,29.77,6.56,41.13,0c6.32-3.65,9.11-8.56,8.4-13.32L299.29,383.95z"/>
			</g>
			<path class="st16" d="M290.88,397.27c1.59-0.92,2.96-1.92,4.11-2.98c-16.71,5.97-31.25,3.39-36.58-16.6
				c-1.29-4.82-2.47-10.99-3.59-18.11c-1.78-0.61-3.48-1.35-5.01-2.23c-5.07-2.93-7.56-6.78-7.47-10.62l-1.1,38.45l0.02,0
				c-0.1,4.37,2.72,8.76,8.5,12.1C261.11,403.83,279.52,403.83,290.88,397.27z"/>
		</g>
		<g>
			<g>
				<g>
					<path class="st8" d="M237.18,378.02l0.01,0c-1.44-9.28-4.02-25.75-6.77-43.38c-4.26-27.27-13.14-41.76-34.35-47.72
						c-15.99-4.5-37.57-3.63-51.46,2.05s-24.76,19.55-14.68,39.71c12.09,24.19,49.8,29.83,49.8,29.83l0.51-17.7l-1.1,38.45l0.02,0
						c-0.1,4.37,2.72,8.76,8.5,12.1c11.36,6.56,29.77,6.56,41.13,0C235.1,387.69,237.89,382.78,237.18,378.02z"/>
					<path class="st5" d="M237.19,378.02c-1.3-8.41-3.54-22.73-6-38.47c0,0.01,0,0.01,0,0.03c0.7,4.23-1.75,8.6-7.36,11.84
						c-9.97,5.76-26.14,5.76-36.11,0c-5.07-2.93-7.56-6.78-7.47-10.62l-1.1,38.45l0.02,0c-0.1,4.37,2.72,8.76,8.5,12.1
						c11.36,6.56,29.77,6.56,41.13,0c6.32-3.65,9.11-8.56,8.4-13.32L237.19,378.02z"/>
					<path class="st13" d="M237.19,378.02c-1.3-8.41-3.54-22.73-6-38.47c0,0.01,0,0.01,0,0.03c0.7,4.23-1.75,8.6-7.36,11.84
						c-9.97,5.76-26.14,5.76-36.11,0c-5.07-2.93-7.56-6.78-7.47-10.62l-1.1,38.45l0.02,0c-0.1,4.37,2.72,8.76,8.5,12.1
						c11.36,6.56,29.77,6.56,41.13,0c6.32-3.65,9.11-8.56,8.4-13.32L237.19,378.02z"/>
				</g>
				<path class="st14" d="M228.78,391.34c1.59-0.92,2.96-1.92,4.11-2.98c-16.71,5.97-31.25,3.39-36.58-16.6
					c-1.29-4.82-2.47-10.99-3.59-18.11c-1.78-0.61-3.48-1.35-5.01-2.23c-5.07-2.93-7.56-6.78-7.47-10.62l-1.1,38.45l0.02,0
					c-0.1,4.37,2.72,8.76,8.5,12.1C199.01,397.9,217.42,397.9,228.78,391.34z"/>
			</g>
			<path class="st12" d="M170.82,344.51c-7.18,3.18-32.75-3.89-43.32-21.79c0.61,1.92,1.41,3.9,2.43,5.95
				c12.09,24.19,49.8,29.83,49.8,29.83v0v0l1.14-35.62C180.87,322.87,178,341.33,170.82,344.51z"/>
		</g>
		<g>
			<g>
				<path class="st5" d="M280.54,110.92c-14.72-0.95-47.69,14.92-59.09,49.41c-11.4,34.49-25.63,40.24-41.15,44.26
					c-15.52,4.02-28.93,13.76-30.92,27.48c12.4-6.07,20.52-6.85,33.69-1.83c13.16,5.02,41.36,13.5,62.42-19.28
					c15.53-24.18,12.13-50.18,28.8-85.74C276,121.58,280.54,110.92,280.54,110.92z"/>
				<path class="st6" d="M280.54,110.92c-14.72-0.95-47.69,14.92-59.09,49.41c-11.4,34.49-25.63,40.24-41.15,44.26
					c-15.52,4.02-28.93,13.76-30.92,27.48c12.4-6.07,20.52-6.85,33.69-1.83c13.16,5.02,41.36,13.5,62.42-19.28
					c15.53-24.18,12.13-50.18,28.8-85.74C276,121.58,280.54,110.92,280.54,110.92z"/>
				<path class="st5" d="M280.54,110.92c-14.72-0.95-47.69,14.92-59.09,49.41c-10.89,32.94-24.36,39.67-39.07,43.71
					c37.92,2.61,50.51-9.59,58.14-32.7C246.91,151.99,258.23,116.73,280.54,110.92z"/>
				<path class="st17" d="M280.54,110.92c-14.72-0.95-47.69,14.92-59.09,49.41c-10.89,32.94-24.36,39.67-39.07,43.71
					c37.92,2.61,50.51-9.59,58.14-32.7C246.91,151.99,258.23,116.73,280.54,110.92z"/>
				<path class="st5" d="M240.52,171.33c6.39-19.34,17.71-54.6,40.02-60.41c-7.53-0.49-19.83,3.44-31.59,12
					c4.43,3.35,8.24,4.11,8.24,4.11s-12.01,12.79-18.8,32.08c-5.25,14.94-9.05,28.69-22.7,36.26c-12.74,7.06-21.84,5.64-31.28,8.08
					c-0.68,0.2-1.36,0.4-2.04,0.58C220.3,206.64,232.89,194.44,240.52,171.33z"/>
				<path class="st18" d="M183.08,230.23c13.16,5.02,41.36,13.5,62.42-19.28c3.79-5.91,6.45-11.93,8.56-18.16l0.04-0.97
					c-16.48,33.38-42.95,35.43-62.63,30.19c-16.66-4.43-33.02-2.9-42.07,10.05C161.79,225.99,169.91,225.21,183.08,230.23z"/>
			</g>
			<g id="Head_00000095304200180458878020000011982482993476900263_">
				<g>
					<path class="st8" d="M278.09,114.07c0,0,2.8,27.59,3.37,28.58c-1.01,15.68,3.74,24.78,11.31,31.44
						c13.87,12.21,26.08,9.18,39.04,18.43c10.39,7.41,13.4,10.36,26.8,7.89c13.4-2.47,15.95-8.36,20.42-16.42
						c4.47-8.06,0.64-15.08-3.51-23.7c-4.15-8.62-5.74-17.82-7.02-25.5c-1.28-7.69-0.74-37.38-30.1-44.72
						C309.05,82.72,284.92,92.36,278.09,114.07z"/>
					<g>
						<path class="st5" d="M358.62,200.4c13.4-2.47,15.96-8.36,20.42-16.42c4.25-7.67,0.99-14.4-2.91-22.46
							c-6.75-2.78-14.46-3.23-21.4-0.99c-8.54,2.76-15.71,9.05-18.56,17.57c-0.97,2.92-2.8,7.19-2.76,15.55
							C342.55,200.22,345.93,202.74,358.62,200.4z"/>
						<path class="st19" d="M358.62,200.4c13.4-2.47,15.96-8.36,20.42-16.42c4.25-7.67,0.99-14.4-2.91-22.46
							c-6.75-2.78-14.46-3.23-21.4-0.99c-8.54,2.76-15.71,9.05-18.56,17.57c-0.97,2.92-2.8,7.19-2.76,15.55
							C342.55,200.22,345.93,202.74,358.62,200.4z"/>
					</g>
				</g>
				<g>
					<path class="st4" d="M355.78,175.14c-1.14,0.54-1.44,2.08-0.87,3.15c0.69,1.3,2.87,1.86,3.94,3.02
						c0.38,0.41,0.86,0.9,1.41,0.79c0.47-0.1,0.74-0.6,0.85-1.07c0.37-1.63-0.43-3.35-1.59-4.56
						C358.58,175.47,357.19,174.47,355.78,175.14z"/>
					<g>
						<path class="st4" d="M325.31,148.44c0,2.42-2.55,4.38-5.71,4.38s-5.71-1.96-5.71-4.38c0-1.02,0.46-1.96,1.22-2.71
							c1.04-1.02,2.43-0.26,4.25-0.26c1.43,0,2.98-1,3.98-0.34C324.55,145.94,325.31,147.12,325.31,148.44z"/>
						<path class="st2" d="M317.49,151.84c0,1.34-1.75,2.42-3.9,2.42c-2.15,0-3.9-1.08-3.9-2.42c0-1.34,1.75-2.42,3.9-2.42
							C315.75,149.42,317.49,150.5,317.49,151.84z"/>
						<path class="st1" d="M314.07,150.96c0,0.48-0.68,0.87-1.51,0.87s-1.51-0.39-1.51-0.87c0-0.48,0.68-0.87,1.51-0.87
							S314.07,150.48,314.07,150.96z"/>
						<path class="st1" d="M315.11,150.64c0,0.18-0.15,0.33-0.33,0.33c-0.18,0-0.33-0.15-0.33-0.33c0-0.18,0.15-0.33,0.33-0.33
							C314.96,150.31,315.11,150.46,315.11,150.64z"/>
						<path class="st3" d="M330.82,138.16c-0.82,0.67-1.41,1.65-2.14,2.42c-0.65,0.69-1.38,1.29-2.16,1.82
							c-1.44,0.97-3.09,1.68-4.78,2.07c-2.01,0.46-4,0.42-6.03,0.29c-1.06-0.07-2.09-0.12-3.15-0.26c-1.07-0.15-2.13-0.34-3.21-0.39
							c-0.33-0.01-0.15,0.51,0.01,0.61c3.97,2.57,9.22,3.12,13.72,1.72c1.92-0.6,3.66-1.54,5.2-2.84c1.39-1.18,3.05-3.12,2.94-5.07
							C331.2,138.35,331.03,137.98,330.82,138.16z"/>
					</g>
					<path class="st3" d="M369.62,141.1c-0.69-0.4-1.35-0.84-1.96-1.36c-0.8-0.69-1.49-1.61-2.37-2.19
						c-0.23-0.15-0.36,0.23-0.35,0.39c0.09,1.95,1.94,3.72,3.44,4.75c0.57,0.39,1.17,0.72,1.77,1.02
						C369.96,142.83,369.79,141.96,369.62,141.1z"/>
				</g>
				<g>
					<path class="st5" d="M288.67,97.85c7.66-10.05,22.25-16.78,42.55-15.56c27.73,1.66,61.83,22.29,66.9,59.65
						c0,0-9.09-14.84-23.07-18.74C361.05,119.3,309.98,126.14,288.67,97.85z"/>
					<path class="st17" d="M288.67,97.85c7.66-10.05,22.25-16.78,42.55-15.56c27.73,1.66,61.83,22.29,66.9,59.65
						c0,0-9.09-14.84-23.07-18.74C361.05,119.3,309.98,126.14,288.67,97.85z"/>
					<path class="st5" d="M340.9,109.61c-25.37,0.92-44.93-6.73-51.98-12.07c-0.08,0.1-0.17,0.2-0.25,0.31
						c21.32,28.29,72.38,21.44,86.37,25.35c13.98,3.9,23.08,18.74,23.08,18.74C390.74,106.94,356.47,109.05,340.9,109.61z"/>
				</g>
				<g>
					<g>
						<path class="st8" d="M367.55,110.48c-8.48,0.74-14.3-4.67-20.14-8.66c-5.84-3.99-10.29-2.3-12.59,0
							c-4.41,4.86-3.64,11.76,4.91,18.02c7.27,5.32,15.6,7.15,21.99,4.47C368.42,121.51,368.79,114.87,367.55,110.48z"/>
						<g class="st15">
							<path class="st5" d="M340.63,100.68c1.91,0,3.95,0.73,6.07,2.18c0.87,0.59,1.72,1.21,2.62,1.86c4.61,3.33,9.84,7.1,16.68,7.1
								c0.19,0,0.38,0,0.57-0.01c0.51,2.63,0.93,8.71-5.33,11.33c-1.78,0.74-3.75,1.12-5.87,1.12c-4.79,0-10.07-1.94-14.88-5.45
								c-4.24-3.1-6.66-6.49-7-9.8c-0.23-2.25,0.55-4.44,2.25-6.32C336.51,101.93,338.15,100.68,340.63,100.68 M340.63,99.41
								c-2.53,0-4.51,1.1-5.81,2.4c-4.41,4.86-3.64,11.76,4.91,18.02c5.04,3.69,10.57,5.69,15.63,5.69c2.25,0,4.4-0.4,6.36-1.22
								c6.69-2.8,7.06-9.44,5.83-13.83c-0.53,0.05-1.05,0.07-1.56,0.07c-7.65,0-13.11-4.99-18.58-8.73
								C344.87,100.07,342.58,99.41,340.63,99.41L340.63,99.41z"/>
						</g>
					</g>
					<g>
						<path class="st8" d="M347.41,101.81c5.84,3.99,11.65,9.4,20.14,8.66c4.1-0.66,10.19-4.88,7.47-12.77
							c-6.62,0.84-10.66-2.14-15.33-4c-4.66-1.86-15.28-3.92-18.8,5.7C343.02,99.48,345.19,100.3,347.41,101.81z"/>
						<g class="st15">
							<path class="st5" d="M351.8,93.41c3.36,0,6.31,1.03,7.43,1.48c0.99,0.39,1.94,0.84,2.95,1.3c3.1,1.44,6.31,2.93,10.59,2.93
								c0.44,0,0.89-0.02,1.34-0.05c0.59,2.31,0.36,4.36-0.69,6.12c-1.39,2.32-4.02,3.68-6.02,4.02c-0.47,0.04-0.94,0.06-1.4,0.06
								c-6.01,0-10.68-3.36-15.19-6.62c-0.87-0.63-1.78-1.28-2.67-1.89c-1.82-1.23-3.62-2.04-5.38-2.4
								C344.49,95.07,347.52,93.41,351.8,93.41 M351.8,92.14c-4.32,0-8.83,1.62-10.9,7.27c2.12,0.07,4.29,0.9,6.51,2.4
								c5.47,3.74,10.93,8.73,18.58,8.73c0.51,0,1.03-0.02,1.56-0.07c4.1-0.66,10.19-4.88,7.47-12.77c-0.79,0.1-1.54,0.15-2.26,0.15
								c-5.33,0-8.96-2.51-13.07-4.15C357.77,92.94,354.83,92.14,351.8,92.14L351.8,92.14z"/>
						</g>
					</g>
					<g>
						<path class="st8" d="M359.7,93.71c4.66,1.86,8.71,4.84,15.33,4c5.57-0.69,8.71-4.94,8.27-10.49c-4.17,1.43-9.58,0-15.18-1.9
							c-5.6-1.9-14.74-1.21-17.84,6.89C354.83,91.76,359.7,93.71,359.7,93.71z"/>
						<g class="st15">
							<path class="st5" d="M362.6,85.71c1.77,0,3.53,0.28,5.11,0.81c3.9,1.32,8.03,2.55,11.77,2.55c0.91,0,1.77-0.07,2.58-0.22
								c-0.22,4.2-2.87,7.06-7.19,7.6c-0.71,0.09-1.42,0.14-2.1,0.14c-3.72,0-6.54-1.31-9.52-2.7c-0.99-0.46-2.02-0.94-3.07-1.36
								c-0.16-0.06-3.8-1.5-7.85-1.64C355.11,86.26,360.31,85.71,362.6,85.71 M362.6,84.44c-4.87,0-10.12,2.01-12.33,7.77
								c0.47-0.05,0.94-0.07,1.42-0.07c4.1,0,8.01,1.57,8.01,1.57c4.11,1.64,7.74,4.15,13.07,4.15c0.72,0,1.47-0.05,2.26-0.15
								c5.57-0.69,8.71-4.94,8.27-10.49c-1.18,0.41-2.47,0.58-3.83,0.58c-3.43,0-7.35-1.12-11.36-2.48
								C366.49,84.77,364.58,84.44,362.6,84.44L362.6,84.44z"/>
						</g>
					</g>
					<g>
						<path class="st8" d="M368.11,85.32c5.6,1.9,11.01,3.33,15.18,1.9c4.75-1.51,6.58-6.26,6.2-9.81c-3.3,0.93-7.87,0.7-12.67-0.22
							c-7.62-1.46-14.4,1.08-16.3,7.38C363.21,84.32,366.34,84.74,368.11,85.32z"/>
						<g class="st15">
							<path class="st5" d="M372.74,78.06c1.24,0,2.53,0.13,3.84,0.38c2.89,0.55,5.54,0.83,7.89,0.83c1.37,0,2.63-0.1,3.76-0.29
								c-0.22,2.58-1.66,5.86-5.36,7.03c-1.01,0.35-2.12,0.51-3.41,0.51c-3.37,0-7.25-1.16-10.96-2.41c-1.6-0.53-3.9-0.87-6.07-0.89
								C364.21,79.92,367.86,78.06,372.74,78.06 M372.74,76.79c-5.86,0-10.67,2.63-12.22,7.78c0.54-0.05,1.1-0.07,1.66-0.07
								c2.23,0,4.52,0.36,5.93,0.83c4.01,1.36,7.93,2.48,11.36,2.48c1.36,0,2.64-0.18,3.83-0.58c4.75-1.51,6.58-6.26,6.2-9.81
								c-1.45,0.41-3.16,0.59-5.02,0.59c-2.36,0-4.97-0.3-7.65-0.81C375.43,76.92,374.06,76.79,372.74,76.79L372.74,76.79z"/>
						</g>
					</g>
					<g>
						<path class="st8" d="M395.22,68.19c-2.12,1.01-5.09,1.77-10.12,1.27c-8.05-0.8-13.94,2.61-14.24,7.43
							c2.05-0.14,4.8-0.03,6.28,0.36c3.91,0.78,8.9,1.18,12.36,0.16C393.05,76.36,395.56,72.23,395.22,68.19z"/>
						<g class="st15">
							<path class="st5" d="M393.89,70.08c-0.42,2.84-2.32,5.39-4.76,6.11c-1.26,0.37-2.85,0.56-4.7,0.56
								c-2.14,0-4.63-0.26-7.02-0.74c-1.57-0.41-3.84-0.45-4.75-0.45c-0.08,0-0.16,0-0.24,0c1.14-2.93,5.19-4.94,10.35-4.94
								c0.71,0,1.45,0.04,2.19,0.11c1.1,0.11,2.15,0.17,3.13,0.17C390.29,70.89,392.17,70.63,393.89,70.08 M395.22,68.19
								c-1.66,0.79-3.84,1.43-7.11,1.43c-0.91,0-1.91-0.05-3.01-0.16c-0.79-0.08-1.57-0.12-2.31-0.12c-6.84,0-11.66,3.2-11.93,7.54
								c0.57-0.04,1.18-0.06,1.82-0.06c1.66,0,3.39,0.14,4.46,0.42c2.24,0.45,4.84,0.77,7.3,0.77c1.83,0,3.58-0.18,5.06-0.61
								C393.05,76.36,395.56,72.23,395.22,68.19L395.22,68.19z"/>
						</g>
					</g>
					<g>
						<path class="st8" d="M380.48,69.47c0-3.13,2.44-4.56,8.1-8.89c5.25-4.02,9.58-7.34,13.04-9.98c2.76-2.11,5.99-0.38,4.07,3.25
							c-0.72,1.36-1.45,2.36-5.41,8.97c-1.41,2.35-3.06,4.48-5.05,5.37c0,0-1.77,1.12-5.39,1.45
							C385.92,70,385.37,69.19,380.48,69.47z"/>
						<g class="st15">
							<path class="st5" d="M404.06,50.95L404.06,50.95c0.22,0,0.63,0.05,0.82,0.36c0.24,0.39,0.12,1.12-0.31,1.94
								c-0.34,0.64-0.69,1.21-1.46,2.45c-0.77,1.26-1.95,3.15-3.92,6.46c-1.58,2.63-3.04,4.22-4.48,4.86
								c-0.05,0.02-0.11,0.05-0.16,0.08c-0.02,0.01-1.62,0.97-4.84,1.27c-0.64,0.06-1.22,0.09-1.77,0.09
								c-0.84,0-1.51-0.07-2.27-0.14c-0.87-0.09-1.86-0.19-3.24-0.19c-0.15,0-0.29,0-0.44,0c0.55-1.34,2.1-2.57,5.5-5.14
								c0.58-0.44,1.19-0.9,1.86-1.41l5.02-3.85l8.02-6.14C402.94,51.18,403.54,50.95,404.06,50.95 M404.06,49.68
								c-0.76,0-1.62,0.29-2.44,0.92c-3.46,2.65-7.79,5.96-13.04,9.98c-5.65,4.33-8.1,5.76-8.1,8.89c0.74-0.04,1.39-0.06,1.95-0.06
								c2.48,0,3.58,0.33,5.51,0.33c0.54,0,1.15-0.03,1.88-0.09c3.63-0.33,5.39-1.45,5.39-1.45c1.99-0.89,3.64-3.01,5.05-5.37
								c3.96-6.61,4.7-7.61,5.41-8.97C407.04,51.29,405.84,49.68,404.06,49.68L404.06,49.68z"/>
						</g>
					</g>
					<path class="st11" d="M365.62,92.45c-4.49-2.07-9.56-4.03-15.35-0.24c4.56-0.45,9.43,1.5,9.43,1.5c4.66,1.86,8.71,4.84,15.33,4
						c2.54-0.31,4.56-1.37,5.98-2.95C375.67,96.67,369.53,94.26,365.62,92.45z M358.82,103.74c-7.6-4.49-12.44-7.95-17.93-4.33
						c2.12,0.07,4.29,0.9,6.51,2.4c5.84,3.99,11.65,9.4,20.14,8.66c2.15-0.34,4.82-1.68,6.51-3.98
						C369.96,108.26,364.7,107.21,358.82,103.74z M385.46,74.71c-5.84-0.46-11.09-2.19-14.61,2.17c2.05-0.14,4.8-0.03,6.28,0.36
						c3.91,0.78,8.9,1.18,12.36,0.16c1.81-0.53,3.34-1.86,4.37-3.56C391.91,74.72,389.27,75.01,385.46,74.71z M390.73,65.84
						c-4.03,1.04-8.46-0.09-10.25,3.62c4.89-0.28,5.45,0.53,9.35,0.18c3.63-0.33,5.39-1.45,5.39-1.45c1.99-0.89,3.64-3.01,5.05-5.37
						c2.94-4.91,4.1-6.72,4.8-7.88C399.48,63.95,394.76,64.81,390.73,65.84z M376.1,83.7c-6.34-1.96-11.06-3.23-15.58,0.87
						c2.69-0.25,5.82,0.17,7.59,0.76c5.6,1.9,11.01,3.33,15.18,1.9c2.14-0.68,3.69-2.03,4.71-3.62
						C384.98,85.27,380.79,85.15,376.1,83.7z M350.75,119.07c-10.15-2.9-17.06-10.3-16.59-16.46c-3.64,4.8-2.53,11.3,5.57,17.23
						c7.27,5.32,15.6,7.15,21.99,4.47c4.85-2.03,6.37-6.08,6.38-9.82C366.93,119.64,361,122,350.75,119.07z"/>
				</g>
				<g>
					<path class="st5" d="M288.67,97.85c6.86,19.98,16.83,30.2,37.28,35.09c19.07,4.56,34.57-1.28,49.75,4.56
						c19.17,7.39,20.45,22.02,19.55,30.53c12.83-22.23-3.79-51.48-33.57-51.48C331.9,116.56,309.46,114.25,288.67,97.85z"/>
					<path class="st6" d="M288.67,97.85c6.86,19.98,16.83,30.2,37.28,35.09c19.07,4.56,34.57-1.28,49.75,4.56
						c19.17,7.39,20.45,22.02,19.55,30.53c12.83-22.23-3.79-51.48-33.57-51.48C331.9,116.56,309.46,114.25,288.67,97.85z"/>
					<path class="st18" d="M360.52,128.2c-34.7,3.07-47.82,0.11-62.8-12.26c6.43,8.59,15.19,13.89,28.22,17
						c19.07,4.56,34.57-1.28,49.75,4.56c19.17,7.39,20.45,22.02,19.55,30.53C401.95,142.9,382.87,126.23,360.52,128.2z"/>
				</g>
				<path class="st20" d="M288.67,97.85c-18.05,1.68-32.19,10.97-36.71,16.22c-4.52,5.25-1.7,8.07,7.91,10.05
					c9.61,1.98,27.7,1.41,27.7,1.41S299.65,107.2,288.67,97.85z"/>
				<path class="st2" d="M293.21,106.94c-1.89,5.9-5.99,11.02-17.07,13.3c-13.5,2.78-23.87,0.82-25.84-3.7
					c-1.69,3.71,1.59,5.94,9.57,7.58c9.61,1.98,27.7,1.41,27.7,1.41S293.96,115.83,293.21,106.94z"/>
			</g>
		</g>
		<g>
			<path class="st5" d="M119.63,280.32c21.39-0.63,90.96,24.78,90.55,90.11s-84.62,65.44-77.69,27.77
				c4.43,11.6,19.65,11.47,24.51,4.78c5.94-8.17,4.72-25.42-22.51-31.13c-10.79-2.26-22.49-3.88-32.34-9.09
				c-8.5-4.49-21.84-12.71-28.25-24.18c-5.54-9.92-5.45-22.83-2.71-29.87C79.67,286.91,105.11,280.31,119.63,280.32z"/>
			<path class="st10" d="M188.86,314.69c15.55,20.28,18.83,78.76-10.39,97.5c-24.39,15.64-47.47,0.16-45.99-13.99
				c-6.94,37.67,77.28,37.55,77.69-27.77C210.32,346.87,201.37,328.51,188.86,314.69z"/>
		</g>
	</g>
</g>
</svg>
